<?xml version="1.0" standalone="no"?>
<!DOCTYPE svg PUBLIC "-//W3C//DTD SVG 20010904//EN"
 "http://www.w3.org/TR/2001/REC-SVG-20010904/DTD/svg10.dtd">
<svg version="1.0" xmlns="http://www.w3.org/2000/svg"
 width="500.000000pt" height="500.000000pt" viewBox="0 0 500.000000 500.000000"
 preserveAspectRatio="xMidYMid meet">
<metadata>
Created by potrace 1.14, written by Peter Selinger 2001-2017
</metadata>
<g transform="translate(0.000000,500.000000) scale(0.100000,-0.100000)"
fill="#000000" stroke="none">
<path d="M743 4985 c-349 -64 -623 -318 -715 -665 l-23 -85 0 -1735 0 -1735
23 -85 c86 -323 329 -566 652 -652 l85 -23 1735 0 1735 0 85 23 c323 86 566
329 652 652 l23 85 0 1735 0 1735 -23 85 c-85 320 -323 561 -647 652 l-80 23
-1715 2 c-1376 1 -1729 -1 -1787 -12z m1573 -847 c4 -5 -39 -135 -95 -290 -74
-203 -100 -287 -93 -298 8 -13 65 -15 404 -18 320 -2 398 -5 407 -16 21 -25
130 -489 120 -508 -9 -17 -40 -18 -434 -18 l-424 0 -24 23 c-18 16 -48 91
-113 286 -48 145 -96 273 -105 285 -16 19 -19 20 -42 6 -14 -8 -187 -168 -386
-355 -199 -187 -371 -345 -384 -352 -16 -9 -120 -12 -408 -13 -359 0 -387 1
-402 18 -21 23 -257 518 -264 554 l-5 28 653 0 c631 0 655 1 686 20 18 10 39
33 47 49 15 28 155 410 190 517 19 57 38 80 76 87 41 8 588 3 596 -5z m-404
-725 c9 -10 55 -155 102 -323 127 -446 125 -439 145 -450 15 -7 73 10 257 75
131 47 246 85 255 85 10 0 124 -38 254 -85 250 -89 265 -91 281 -43 4 13 53
182 109 376 56 195 109 361 118 369 14 15 18 15 39 0 35 -24 831 -806 845
-830 7 -12 114 -292 238 -622 124 -330 236 -623 250 -652 13 -29 47 -77 75
-108 l50 -55 0 -114 c0 -142 -10 -161 -88 -161 -73 0 -100 24 -141 125 -18 45
-118 322 -222 614 -105 292 -225 618 -267 724 l-77 193 -133 121 c-73 66 -207
197 -298 291 -140 145 -167 168 -178 156 -8 -8 -23 -59 -35 -114 -25 -119
-126 -510 -141 -542 -6 -15 -18 -23 -34 -23 -14 0 -164 49 -335 108 l-310 108
-308 -107 c-169 -60 -320 -108 -336 -109 -19 0 -30 7 -37 23 -6 12 -46 163
-89 335 -43 173 -83 318 -89 324 -6 6 -82 -63 -228 -210 -121 -120 -254 -251
-297 -290 -75 -67 -80 -75 -123 -178 -62 -149 -148 -381 -304 -818 -224 -631
-239 -668 -271 -698 -35 -33 -67 -42 -114 -34 -58 11 -67 37 -63 169 l3 115
53 56 c29 30 61 74 71 98 10 24 118 309 240 633 122 325 227 602 233 617 13
35 854 868 875 868 5 0 17 -8 25 -17z m-141 -549 c6 -22 13 -155 16 -296 l6
-258 -277 0 c-152 0 -276 4 -276 8 0 19 87 130 273 349 109 128 205 237 215
242 22 12 31 3 43 -45z m1130 -662 c31 -11 71 -28 90 -37 45 -23 139 -95 139
-107 0 -11 -138 -181 -151 -186 -5 -2 -22 7 -38 21 -64 54 -119 72 -216 71
-107 0 -164 -23 -233 -92 -85 -84 -117 -193 -110 -372 8 -189 62 -291 184
-351 84 -41 207 -52 279 -24 l45 17 0 119 0 119 -110 0 -110 0 0 120 0 120
245 0 245 0 0 -304 0 -304 -37 -32 c-51 -45 -162 -96 -251 -116 -103 -23 -290
-15 -382 16 -157 53 -281 160 -349 302 -59 124 -74 210 -69 382 6 161 30 256
93 361 68 113 193 220 306 261 135 48 319 55 430 16z m983 13 c83 -18 196 -72
255 -123 l44 -38 -73 -90 c-40 -49 -76 -90 -81 -92 -5 -2 -22 6 -38 18 -17 11
-56 33 -88 48 -76 35 -209 39 -260 7 -41 -24 -67 -76 -58 -115 10 -48 65 -82
243 -155 92 -37 186 -79 209 -92 62 -36 123 -101 152 -163 22 -48 26 -69 26
-155 0 -91 -3 -106 -31 -165 -55 -115 -168 -202 -305 -235 -82 -19 -246 -19
-327 0 -35 8 -98 31 -140 50 -73 34 -182 108 -182 123 0 9 159 202 166 202 3
0 25 -14 50 -31 88 -60 172 -92 253 -97 130 -7 195 25 208 101 8 49 -12 92
-53 117 -18 12 -105 52 -194 90 -184 78 -247 115 -295 175 -54 65 -78 129 -83
220 -3 65 0 91 18 138 79 209 321 318 584 262z m-1916 -137 l3 -128 -271 0
-271 0 3 -132 3 -133 228 -3 227 -2 0 -125 0 -125 -230 0 -230 0 0 -150 0
-150 278 -2 277 -3 3 -127 3 -128 -429 0 -429 0 -7 428 c-10 552 -6 609 46
780 l41 132 376 -2 376 -3 3 -127z m-914 -384 c3 -9 6 -183 6 -387 0 -280 -3
-378 -13 -397 -12 -24 -15 -25 -141 -28 -135 -3 -156 3 -156 41 0 51 222 709
258 765 17 26 37 29 46 6z"/>
</g>
</svg>
